<svg id="Layer_1" data-name="Layer 1" xmlns="http://www.w3.org/2000/svg" xmlns:xlink="http://www.w3.org/1999/xlink" viewBox="0 0 106.78 36.31">
  <defs>
    <style>
      .cls-1 {
        fill: url(#linear-gradient);
      }

      .cls-2 {
        fill: #43cbff;
      }

      .cls-3 {
        fill: #fff;
      }

      .cls-4 {
        fill: #80859d;
      }
    </style>
    <linearGradient id="linear-gradient" x1="16.05" y1="16.05" x2="6.52" y2="6.52" gradientUnits="userSpaceOnUse">
      <stop offset="0" stop-color="#43cbff"/>
      <stop offset="0.14" stop-color="#45b8fb"/>
      <stop offset="0.73" stop-color="#4e6eeb"/>
      <stop offset="1" stop-color="#5151e5"/>
    </linearGradient>
  </defs>
  <g>
    <g>
      <g>
        <path class="cls-1" d="M16.05,12.26,8.42,4.63,4.63,8.42l7.63,7.63a2.68,2.68,0,1,0,3.79-3.79Z"/>
        <path class="cls-2" d="M4.93.79a2.68,2.68,0,1,0-3.8,3.79L3.36,6.8,4.9,5.29A3.17,3.17,0,0,0,4.93.79Z"/>
        <path class="cls-2" d="M16.05.79a2.67,2.67,0,0,0-3.79,0L.79,12.26a2.68,2.68,0,0,0,3.79,3.79L16.05,4.58A2.69,2.69,0,0,0,16.05.79Z"/>
      </g>
      <g>
        <path class="cls-3" d="M85.5,0A2.16,2.16,0,0,1,87,3.68L82.85,7.86l-.54.54.54.53L87,13.11A2.16,2.16,0,0,1,84,16.16L79.8,12,76.21,8.4,79.8,4.81,84,.63A2.14,2.14,0,0,1,85.5,0"/>
        <path class="cls-3" d="M101.17,16.79H93a2.14,2.14,0,0,1-2.14-2.14h0A2.13,2.13,0,0,1,93,12.52h8.15a1.1,1.1,0,0,0,.79-.32,1,1,0,0,0,.33-.75.59.59,0,0,0-.33-.6,2.07,2.07,0,0,0-.79-.14H96.49a5.78,5.78,0,0,1-2.2-.42,5.65,5.65,0,0,1-1.78-1.16,5.38,5.38,0,0,1-1.19-1.7,5.18,5.18,0,0,1,0-4.18,5.49,5.49,0,0,1,1.19-1.7A5.57,5.57,0,0,1,94.29.42,5.78,5.78,0,0,1,96.49,0h7a2.14,2.14,0,0,1,2.14,2.14h0a2.13,2.13,0,0,1-2.14,2.13h-7a1.1,1.1,0,0,0-.79.32,1,1,0,0,0-.33.75,1.06,1.06,0,0,0,.4.85,1.17,1.17,0,0,0,.72.25h4.68a6.28,6.28,0,0,1,2.18.37,5.69,5.69,0,0,1,1.78,1,4.77,4.77,0,0,1,1.2,1.58,4.61,4.61,0,0,1,.45,2,4.86,4.86,0,0,1-.45,2.08,5.36,5.36,0,0,1-1.2,1.7,5.6,5.6,0,0,1-1.78,1.14A5.68,5.68,0,0,1,101.17,16.79Z"/>
        <g>
          <path class="cls-3" d="M40.4,14.25a7.87,7.87,0,0,1-.67,3.24,8.32,8.32,0,0,1-1.82,2.63,8.76,8.76,0,0,1-2.71,1.79,8.31,8.31,0,0,1-3.3.66h-.14a2,2,0,0,1-2-2.08h0a2,2,0,0,1,2.05-2.08h.05a5,5,0,0,0,1.69-.25,3.5,3.5,0,0,0,1.18-.69,3.39,3.39,0,0,0,.77-1A5.87,5.87,0,0,0,36,15.27V4.57A4.5,4.5,0,0,1,40.4,0h0"/>
          <path class="cls-3" d="M31.72,4.16A4.24,4.24,0,1,1,27.49,8.4a4.24,4.24,0,0,1,4.23-4.24m0-4.16a8.4,8.4,0,1,0,8.39,8.4A8.4,8.4,0,0,0,31.72,0Z"/>
        </g>
        <path class="cls-3" d="M57.06,12.22A2.1,2.1,0,0,0,54.45,12a4.24,4.24,0,0,1-2.32.65,4.09,4.09,0,0,1-1.7-.41L56,6.61l3-3a8.39,8.39,0,1,0-6.86,13.22,8.33,8.33,0,0,0,4.6-1.38,2,2,0,0,0,.3-3.14ZM52.21,4.16a4.36,4.36,0,0,1,1.14.16L48.14,9.53a3.74,3.74,0,0,1-.16-1A4.24,4.24,0,0,1,52.21,4.16Z"/>
        <path class="cls-3" d="M74.18,12.22A2.1,2.1,0,0,0,71.57,12a4.21,4.21,0,0,1-2.31.65,4.14,4.14,0,0,1-1.71-.41l5.61-5.61,3-3a8.4,8.4,0,1,0-2.26,11.84,2,2,0,0,0,.29-3.14ZM69.33,4.16a4.24,4.24,0,0,1,1.14.16L65.26,9.53a4.18,4.18,0,0,1-.16-1A4.24,4.24,0,0,1,69.33,4.16Z"/>
      </g>
    </g>
    <g>
      <path class="cls-4" d="M.45,36.24l2.39-7h.55l2.4,7H5.18l-.59-1.71H1.65l-.58,1.71ZM1.82,34H4.41l-1.3-3.81Z"/>
      <path class="cls-4" d="M14.76,36.24,12.19,32.5l-1.43,1.69v2.05h-.59v-7h.59V33.3l3.43-4.07H15L12.59,32l2.89,4.21Z"/>
      <path class="cls-4" d="M17.87,36.24h-.59v-7h.59Z"/>
      <path class="cls-4" d="M27.78,32.81v.29c0,2.24-1,3.21-2.53,3.21s-2.49-.89-2.49-3.16v-.83c0-2.27,1-3.15,2.49-3.15a2.33,2.33,0,0,1,2.47,2.18h-.58a1.76,1.76,0,0,0-1.89-1.63c-1.19,0-1.9.69-1.9,2.6v.83c0,1.92.71,2.6,1.9,2.6s1.87-.66,1.93-2.39h-1.9v-.55Z"/>
      <path class="cls-4" d="M34.05,36.24l-1.55-3H30.43v3h-.59v-7H32c1.59,0,2.51.69,2.51,2a1.82,1.82,0,0,1-1.45,1.89l1.62,3.1Zm-2-3.53c1.23,0,1.92-.41,1.92-1.46s-.69-1.48-1.92-1.48h-1.6v2.94Z"/>
      <path class="cls-4" d="M38.82,36.31c-1.52,0-2.49-.94-2.49-3.16v-.83c0-2.21,1-3.15,2.49-3.15s2.49.94,2.49,3.15v.83C41.31,35.37,40.32,36.31,38.82,36.31Zm-1.91-3.16c0,1.9.76,2.6,1.91,2.6s1.9-.7,1.9-2.6v-.83c0-1.9-.75-2.6-1.9-2.6s-1.91.7-1.91,2.6Z"/>
      <path class="cls-4" d="M43.37,33.38V29.23H44v4.15c0,1.62.68,2.37,1.9,2.37s1.91-.75,1.91-2.37V29.23h.58v4.15c0,2.06-1,2.93-2.49,2.93S43.37,35.44,43.37,33.38Z"/>
      <path class="cls-4" d="M51.37,33.46v2.78h-.59v-7h2.14c1.62,0,2.55.79,2.55,2.12s-.92,2.11-2.55,2.11Zm1.55-.54c1.35,0,2-.58,2-1.57s-.62-1.58-2-1.58H51.37v3.15Z"/>
      <path class="cls-4" d="M64.11,31.35a1.77,1.77,0,0,0-1.89-1.63c-1.2,0-1.9.69-1.9,2.6v.83c0,1.92.71,2.6,1.9,2.6a1.8,1.8,0,0,0,1.89-1.65h.56a2.32,2.32,0,0,1-2.45,2.21c-1.53,0-2.49-.89-2.49-3.16v-.83c0-2.27,1-3.15,2.49-3.15a2.31,2.31,0,0,1,2.46,2.18Z"/>
      <path class="cls-4" d="M68.88,36.31c-1.52,0-2.49-.94-2.49-3.16v-.83c0-2.21,1-3.15,2.49-3.15s2.49.94,2.49,3.15v.83C71.37,35.37,70.38,36.31,68.88,36.31ZM67,33.15c0,1.9.76,2.6,1.91,2.6s1.9-.7,1.9-2.6v-.83c0-1.9-.75-2.6-1.9-2.6s-1.91.7-1.91,2.6Z"/>
      <path class="cls-4" d="M76.37,33.9l2.34-4.67h.58v7H78.7V30.52l-2.06,4.16h-.53l-2-4.15v5.71h-.59v-7h.58Z"/>
      <path class="cls-4" d="M82.27,33.46v2.78h-.59v-7h2.14c1.61,0,2.55.79,2.55,2.12s-.92,2.11-2.55,2.11Zm1.55-.54c1.35,0,2-.58,2-1.57s-.61-1.58-2-1.58H82.27v3.15Z"/>
      <path class="cls-4" d="M87.19,36.24l2.4-7h.54l2.4,7h-.61l-.59-1.71H88.39l-.58,1.71ZM88.56,34h2.59l-1.3-3.81Z"/>
      <path class="cls-4" d="M99,29.23v7H98.4l-3.51-5.83v5.83h-.58v-7h.56l3.5,5.89V29.23Z"/>
      <path class="cls-4" d="M101.45,29.23l1.89,3.29,1.88-3.29h.69l-2.28,3.94v3.07H103V33.17l-2.28-3.94Z"/>
    </g>
  </g>
</svg>
